<?xml version="1.0" encoding="utf-8"?>
<!-- Generator: Adobe Illustrator 24.1.2, SVG Export Plug-In . SVG Version: 6.00 Build 0)  -->
<svg version="1.1" id="Layer_1" xmlns="http://www.w3.org/2000/svg" xmlns:xlink="http://www.w3.org/1999/xlink" x="0px" y="0px"
	 viewBox="0 0 160 160" style="enable-background:new 0 0 160 160;" xml:space="preserve">
<style type="text/css">
	.st0{fill:#A700B4;}
	.st1{fill:url(#SVGID_1_);}
</style>
<path class="st0" d="M160,148.95h-27.37l-21.19-36.7l-14.91,25.82l-1.47,2.54c-3.3,5.11-7.75,8.23-12.64,8.23
	c-6.05,0-11.43-4.79-14.8-12.2l0.11-0.19L67,135.15l-14.15-24.51l-2.22-3.85l-2.84,4.93l-21.5,37.24H-0.39l34.84-60.34l2.84-4.93v0
	l11.1-19.22l2.84-4.93l0.08-0.14l13.34,23.1l6.69,11.58l10.44,18.08l10.97-19L95.72,88l-4.96-8.58l-25.5-44.17l14.54-25.19
	L160,148.95z"/>
<linearGradient id="SVGID_1_" gradientUnits="userSpaceOnUse" x1="58.4269" y1="95.8708" x2="75.5698" y2="125.9779">
	<stop  offset="0" style="stop-color:#61007E"/>
	<stop  offset="1" style="stop-color:#B34AE5"/>
</linearGradient>
<path class="st1" d="M81.75,112.13c-4.62,8.35-9.23,16.69-13.85,25.04c-5.77-10.12-11.54-20.23-17.31-30.35
	c4.68-8.17,9.35-16.35,14.03-24.52C70.33,92.24,76.04,102.19,81.75,112.13z"/>
</svg>
