<svg width="1040" height="130" viewBox="0 0 1040 130" fill="none" xmlns="http://www.w3.org/2000/svg">
<path d="M270.795 6.96H313.165V99H289.266V20.376L289.702 20.6256L275.413 99H243.339L228.613 20.4384L229.05 20.1888V99H205.088V6.96H247.458L260.312 89.3904H257.754L270.795 6.96ZM325.249 99V32.7312H350.147V99H325.249ZM337.667 24.9312C333.964 24.9312 330.719 23.9744 327.932 22.0608C325.187 20.1472 323.814 17.4224 323.814 13.8864C323.814 10.3088 325.187 7.58399 327.932 5.71199C330.719 3.79839 333.964 2.84159 337.667 2.84159C341.369 2.84159 344.593 3.79839 347.339 5.71199C350.126 7.58399 351.519 10.3088 351.519 13.8864C351.519 17.464 350.126 20.2096 347.339 22.1232C344.593 23.9952 341.369 24.9312 337.667 24.9312ZM407.05 99V73.2288C407.05 71.8976 407.05 70.5664 407.05 69.2352C407.05 67.904 407.05 66.76 407.05 65.8032C407.05 63.5152 406.842 61.3312 406.426 59.2512C406.052 57.1712 405.158 55.4656 403.743 54.1344C402.37 52.8032 400.166 52.1376 397.129 52.1376C394.508 52.1376 392.386 52.6784 390.764 53.76C389.142 54.8416 387.956 56.4016 387.207 58.44C386.458 60.4784 386.084 62.9328 386.084 65.8032L381.217 60.8112C381.217 54.7376 382.444 49.5168 384.898 45.1488C387.353 40.7392 390.702 37.3488 394.945 34.9776C399.188 32.5648 403.972 31.3584 409.297 31.3584C414.954 31.3584 419.447 32.5232 422.775 34.8528C426.103 37.1408 428.495 40.3232 429.951 44.4C431.449 48.4768 432.198 53.136 432.198 58.3776C432.198 60.6656 432.198 63.2864 432.198 66.24C432.198 69.1936 432.198 72.3136 432.198 75.6V99H407.05ZM360.937 99V32.7312H386.084V99H360.937ZM479.653 100.622C476.782 100.622 473.746 100.394 470.542 99.936C467.381 99.52 464.406 98.6256 461.619 97.2528C458.832 95.88 456.565 93.8208 454.818 91.0752C453.07 88.288 452.197 84.5648 452.197 79.9056C452.197 78.9488 452.197 77.992 452.197 77.0352C452.197 76.0784 452.197 75.1424 452.197 74.2272V51.4512H437.408V32.7312H437.72C440.965 32.7312 443.544 32.5856 445.458 32.2944C447.413 32.0032 448.869 31.296 449.826 30.1728C450.782 29.0496 451.406 27.2816 451.698 24.8688C452.03 22.456 452.197 19.128 452.197 14.8848V11.016H477.406V32.7312H495.69V51.4512H477.406V69.7344C477.406 70.3584 477.406 70.9824 477.406 71.6064C477.406 72.1888 477.406 72.792 477.406 73.416C477.406 75.8288 477.698 77.8672 478.28 79.5312C478.862 81.1952 480.422 82.0272 482.96 82.0272C484.458 82.0272 485.872 81.8816 487.203 81.5904C488.534 81.2992 489.533 81.008 490.198 80.7168V98.8752C489.242 99.2912 487.848 99.6864 486.018 100.061C484.229 100.435 482.107 100.622 479.653 100.622ZM514.98 72.7296V57.7536H554.042L552.17 60.9984C552.17 60.6656 552.17 60.312 552.17 59.9376C552.17 59.5216 552.17 59.168 552.17 58.8768C552.17 57.4624 551.754 56.0064 550.922 54.5088C550.132 52.9696 548.822 51.68 546.991 50.64C545.202 49.6 542.79 49.08 539.753 49.08C536.799 49.08 534.324 49.704 532.327 50.952C530.33 52.2 528.833 54.0512 527.834 56.5056C526.836 58.9184 526.337 61.872 526.337 65.3664C526.337 69.0272 526.815 72.1472 527.772 74.7264C528.729 77.3056 530.247 79.2816 532.327 80.6544C534.407 81.9856 537.132 82.6512 540.502 82.6512C542.498 82.6512 544.204 82.5056 545.618 82.2144C547.033 81.9232 548.156 81.5488 548.988 81.0912C549.862 80.6336 550.506 80.1344 550.922 79.5936C551.38 79.0528 551.65 78.5328 551.734 78.0336H576.569C576.278 80.9456 575.217 83.7536 573.386 86.4576C571.598 89.1616 569.122 91.5952 565.961 93.7584C562.799 95.88 558.993 97.5648 554.542 98.8128C550.09 100.019 545.057 100.622 539.441 100.622C531.662 100.622 524.922 99.1664 519.223 96.2544C513.524 93.3008 509.135 89.224 506.057 84.024C502.978 78.7824 501.439 72.7712 501.439 65.9904C501.439 59.0432 503.02 52.9696 506.182 47.7696C509.343 42.5696 513.774 38.5344 519.473 35.664C525.214 32.7936 531.87 31.3584 539.441 31.3584C547.262 31.3584 554.001 32.8352 559.658 35.7888C565.358 38.7008 569.746 42.8608 572.825 48.2688C575.903 53.6352 577.442 60.0208 577.442 67.4256C577.442 68.6736 577.422 69.7344 577.38 70.608C577.338 71.4816 577.276 72.1888 577.193 72.7296H514.98ZM586.528 99V32.7312H611.737V57.2544L607.432 53.8848C608.056 50.3488 609.033 47.1872 610.364 44.4C611.696 41.6128 613.36 39.2624 615.356 37.3488C617.395 35.3936 619.724 33.9168 622.345 32.9184C625.008 31.8784 627.961 31.3584 631.206 31.3584C633.91 31.3584 635.948 31.5456 637.321 31.92C638.736 32.2528 639.609 32.5232 639.942 32.7312L636.51 54.696C636.136 54.488 635.304 54.176 634.014 53.76C632.724 53.3024 631.164 53.0736 629.334 53.0736C626.089 53.0736 623.344 53.5936 621.097 54.6336C618.851 55.632 617.041 57.0048 615.668 58.752C614.296 60.4576 613.297 62.392 612.673 64.5552C612.049 66.6768 611.737 68.84 611.737 71.0448V99H586.528ZM648.684 126.269V32.7312H673.893V126.269H648.684ZM693.487 100.622C688.204 100.622 683.399 99.1456 679.073 96.192C674.788 93.1968 671.377 89.2032 668.839 84.2112C666.301 79.1776 665.033 73.6032 665.033 67.488C665.033 67.28 665.033 67.072 665.033 66.864C665.033 66.656 665.033 66.448 665.033 66.24L673.893 66.0528C673.893 66.1776 673.893 66.3232 673.893 66.4896C673.893 66.6144 673.893 66.7392 673.893 66.864C673.893 69.6096 674.497 71.9184 675.703 73.7904C676.951 75.6624 678.511 77.0768 680.383 78.0336C682.297 78.9488 684.252 79.4064 686.249 79.4064C689.41 79.4064 692.301 78.304 694.922 76.0992C697.543 73.8944 698.853 70.3376 698.853 65.4288C698.853 60.52 697.543 57.0256 694.922 54.9456C692.343 52.824 689.452 51.7632 686.249 51.7632C684.293 51.7632 682.359 52.2208 680.445 53.136C678.573 54.0096 677.013 55.3408 675.765 57.1296C674.517 58.9184 673.893 61.2064 673.893 63.9936L665.033 63.3696C665.033 57.2128 666.301 51.7424 668.839 46.9584C671.377 42.1328 674.788 38.3264 679.073 35.5392C683.399 32.752 688.204 31.3584 693.487 31.3584C698.853 31.3584 703.908 32.6688 708.65 35.2896C713.434 37.9104 717.324 41.7584 720.319 46.8336C723.314 51.9088 724.812 58.1072 724.812 65.4288C724.812 73.1664 723.356 79.656 720.444 84.8976C717.532 90.0976 713.705 94.0288 708.962 96.6912C704.22 99.312 699.061 100.622 693.487 100.622ZM759.583 1.46879V99H734.81V1.46879H759.583ZM794.414 100.498C789.672 100.498 785.428 99.7488 781.684 98.2512C777.94 96.712 774.987 94.5072 772.824 91.6368C770.66 88.7248 769.579 85.1888 769.579 81.0288C769.579 76.12 770.972 72.168 773.76 69.1728C776.588 66.1776 780.187 63.9104 784.555 62.3712C788.964 60.832 793.52 59.8544 798.22 59.4384C804.918 58.8144 809.432 58.2736 811.761 57.816C814.091 57.3584 815.256 56.5472 815.256 55.3824C815.256 55.3408 815.256 55.32 815.256 55.32C815.256 53.7808 814.32 52.4704 812.448 51.3888C810.617 50.2656 808.163 49.704 805.084 49.704C801.756 49.704 799.281 50.328 797.659 51.576C796.036 52.7824 795.225 54.5504 795.225 56.88H770.452C770.452 51.3056 772.012 46.6256 775.132 42.84C778.252 39.0544 782.433 36.2048 787.675 34.2912C792.958 32.336 798.824 31.3584 805.272 31.3584C811.387 31.3584 817.107 32.2736 822.432 34.104C827.798 35.9344 832.145 38.7424 835.473 42.528C838.801 46.272 840.465 51.0768 840.465 56.9424C840.465 57.816 840.465 58.6896 840.465 59.5632C840.465 60.4368 840.465 61.3104 840.465 62.184V82.7136C840.465 84.544 840.507 86.312 840.59 88.0176C840.673 89.7232 840.923 91.304 841.339 92.76C841.796 94.2992 842.4 95.6304 843.148 96.7536C843.897 97.8352 844.5 98.584 844.958 99H820.372C819.998 98.6256 819.457 97.9392 818.75 96.9408C818.043 95.9424 817.46 94.7984 817.003 93.5088C816.379 91.6368 815.921 89.8896 815.63 88.2672C815.38 86.6032 815.256 84.5856 815.256 82.2144L820.747 86.0208C819.624 89.0576 817.71 91.6576 815.006 93.8208C812.344 95.984 809.203 97.648 805.584 98.8128C802.006 99.936 798.283 100.498 794.414 100.498ZM801.902 82.6512C804.065 82.6512 806.187 82.1728 808.267 81.216C810.388 80.2592 812.156 78.6784 813.571 76.4736C814.985 74.2272 815.692 71.1904 815.692 67.3632V64.992L822.12 70.1712C819.374 71.128 816.316 71.9392 812.947 72.6048C809.577 73.2288 806.353 73.7072 803.275 74.04C800.404 74.3312 798.262 74.8096 796.848 75.4752C795.475 76.0992 794.788 77.1184 794.788 78.5328C794.788 79.9472 795.412 80.9872 796.66 81.6528C797.908 82.3184 799.656 82.6512 801.902 82.6512ZM887.031 100.622C879.086 100.622 872.263 99.104 866.564 96.0672C860.865 93.0304 856.497 88.8704 853.46 83.5872C850.423 78.304 848.905 72.2928 848.905 65.5536C848.905 58.7728 850.423 52.824 853.46 47.7072C856.497 42.5904 860.865 38.5968 866.564 35.7264C872.263 32.8144 879.086 31.3584 887.031 31.3584C892.897 31.3584 898.055 32.1904 902.506 33.8544C906.958 35.5184 910.66 37.7232 913.614 40.4688C916.609 43.1728 918.855 46.1472 920.353 49.392C921.892 52.6368 922.662 55.8608 922.662 59.064C922.662 59.1472 922.662 59.2512 922.662 59.376C922.662 59.4592 922.662 59.5424 922.662 59.6256H897.764C897.764 59.376 897.743 59.1472 897.702 58.9392C897.702 58.7312 897.66 58.5232 897.577 58.3152C897.244 57.2336 896.724 56.1104 896.017 54.9456C895.31 53.7808 894.228 52.8032 892.772 52.0128C891.358 51.1808 889.361 50.7648 886.782 50.7648C884.244 50.7648 882.039 51.3472 880.167 52.512C878.337 53.6768 876.922 55.3616 875.924 57.5664C874.926 59.7712 874.426 62.4336 874.426 65.5536C874.426 68.5904 874.926 71.2944 875.924 73.6656C876.922 76.0368 878.337 77.888 880.167 79.2192C882.039 80.5504 884.244 81.216 886.782 81.216C889.278 81.216 891.274 80.8416 892.772 80.0928C894.311 79.344 895.455 78.3248 896.204 77.0352C896.994 75.704 897.494 74.2064 897.702 72.5424H922.662C922.662 75.704 921.892 78.9488 920.353 82.2768C918.855 85.5632 916.609 88.6 913.614 91.3872C910.66 94.1328 906.958 96.3584 902.506 98.064C898.055 99.7696 892.897 100.622 887.031 100.622ZM941.786 72.7296V57.7536H980.849L978.977 60.9984C978.977 60.6656 978.977 60.312 978.977 59.9376C978.977 59.5216 978.977 59.168 978.977 58.8768C978.977 57.4624 978.561 56.0064 977.729 54.5088C976.938 52.9696 975.628 51.68 973.798 50.64C972.009 49.6 969.596 49.08 966.559 49.08C963.606 49.08 961.13 49.704 959.134 50.952C957.137 52.2 955.639 54.0512 954.641 56.5056C953.642 58.9184 953.143 61.872 953.143 65.3664C953.143 69.0272 953.622 72.1472 954.578 74.7264C955.535 77.3056 957.054 79.2816 959.134 80.6544C961.214 81.9856 963.938 82.6512 967.308 82.6512C969.305 82.6512 971.01 82.5056 972.425 82.2144C973.839 81.9232 974.962 81.5488 975.794 81.0912C976.668 80.6336 977.313 80.1344 977.729 79.5936C978.186 79.0528 978.457 78.5328 978.54 78.0336H1003.38C1003.08 80.9456 1002.02 83.7536 1000.19 86.4576C998.404 89.1616 995.929 91.5952 992.767 93.7584C989.606 95.88 985.799 97.5648 981.348 98.8128C976.897 100.019 971.863 100.622 966.247 100.622C958.468 100.622 951.729 99.1664 946.03 96.2544C940.33 93.3008 935.942 89.224 932.863 84.024C929.785 78.7824 928.246 72.7712 928.246 65.9904C928.246 59.0432 929.826 52.9696 932.988 47.7696C936.15 42.5696 940.58 38.5344 946.279 35.664C952.02 32.7936 958.676 31.3584 966.247 31.3584C974.068 31.3584 980.807 32.8352 986.465 35.7888C992.164 38.7008 996.553 42.8608 999.631 48.2688C1002.71 53.6352 1004.25 60.0208 1004.25 67.4256C1004.25 68.6736 1004.23 69.7344 1004.19 70.608C1004.14 71.4816 1004.08 72.1888 1004 72.7296H941.786Z" fill="white"/>
<path d="M56.4859 12.2792C58.3503 11.7836 61.6132 11.1641 63.6895 10.875C66.1049 10.5033 69.8762 10.3381 74.0713 10.4207C77.8426 10.5033 82.1648 10.875 84.2412 11.288C86.2328 11.6597 89.3685 12.4031 91.233 12.8987C93.0974 13.4355 96.445 14.5506 98.6485 15.4179C100.852 16.2439 104.115 17.7306 105.852 18.6392C107.59 19.5478 110.471 21.241 112.208 22.3561C113.946 23.5124 117.209 25.8252 119.412 27.5184C121.615 29.2116 126.404 33.5067 130.006 37.0584C133.607 40.6101 138.565 45.8963 141.023 48.7872C143.481 51.7194 145.515 54.1973 145.599 54.3625C145.642 54.5277 143.269 57.4186 140.345 60.8464C137.379 64.2329 132.379 69.5604 129.201 72.6165C126.022 75.7139 121.827 79.4721 119.836 81.0002C117.844 82.5695 114.708 84.7997 112.844 86.0386C110.979 87.2363 107.929 89.0534 106.064 90.0446C104.2 91.0358 100.767 92.6464 98.4366 93.6376C96.106 94.5874 92.5889 95.8677 90.5973 96.4046C88.6057 96.9828 85.3853 97.7261 83.3937 98.0978C80.8088 98.6347 77.7579 98.7999 72.5882 98.7999C66.8252 98.7586 64.4946 98.5934 60.9352 97.85C58.4775 97.3544 54.8756 96.4046 52.884 95.7851C50.8924 95.1243 47.2058 93.6789 44.621 92.5638C42.0785 91.4487 38.1377 89.4251 35.9342 88.1035C33.7307 86.7407 30.0018 84.2628 27.6712 82.5695C25.3406 80.8763 20.2557 76.3747 16.3996 72.6165C12.5435 68.8584 7.24668 63.283 4.66183 60.2269C2.03461 57.1708 -0.0417373 54.5277 0.000637194 54.3625C0.0828227 54.2023 2.11765 51.7895 4.55934 48.8943L4.78896 48.622C7.33143 45.6072 11.8231 40.734 14.747 37.8018C17.6708 34.8283 21.8659 30.9462 24.0694 29.1703C26.2728 27.3532 30.2137 24.5036 32.7561 22.8516C35.2986 21.1584 39.5361 18.8044 42.0785 17.5654C44.6634 16.3265 48.1805 14.7984 49.9178 14.2202C51.6552 13.6007 54.6214 12.7335 56.4859 12.2792Z" fill="white"/>
<path d="M57.9688 21.448C59.7061 20.9524 62.8842 20.2917 64.9606 19.9613C67.503 19.5483 70.5964 19.4244 74.283 19.5483C77.4187 19.6309 81.4443 20.0852 83.6054 20.5394C85.6817 20.9524 88.9445 21.8197 90.809 22.3979C92.6735 23.0174 96.2753 24.5041 98.8602 25.7018C101.445 26.9407 105.132 29.0057 107.123 30.3272C109.115 31.6075 112.462 34.0441 114.539 35.6961C116.615 37.3067 120.641 40.941 123.437 43.7493C126.234 46.5576 129.539 50.0267 130.768 51.4721C131.955 52.8763 132.929 54.2805 132.845 54.6108C132.802 54.9412 131.107 57.0475 129.116 59.2776C127.082 61.5077 123.437 65.2246 120.937 67.5786C118.48 69.8914 114.962 72.9475 113.14 74.3516C111.361 75.7558 108.352 77.862 106.488 79.0184C104.623 80.216 101.106 82.1571 98.6483 83.3547C96.1906 84.5524 92.2921 86.1217 89.9615 86.9064C87.6309 87.6498 83.9867 88.5583 81.9104 88.93C78.9442 89.4669 76.5288 89.5908 71.1049 89.4256C65.4267 89.3017 63.3503 89.0539 60.0875 88.228C57.884 87.6498 54.0703 86.4108 51.6126 85.461C49.1549 84.5524 45.2564 82.6939 42.9258 81.3724C40.5952 80.0921 36.7815 77.6142 34.4509 75.9623C32.078 74.2277 27.1201 69.8914 23.1793 66.0506C19.3232 62.2924 15.2553 58.1212 12.2043 54.4457L15.7638 50.4397C17.713 48.2096 21.6538 44.1623 24.5353 41.4366C27.4168 38.7109 31.9085 34.9527 34.4509 33.0942C37.0358 31.2358 40.9342 28.6753 43.1377 27.4776C45.3412 26.2387 48.9006 24.5867 50.977 23.7607C53.0533 22.9348 56.2314 21.9023 57.9688 21.448Z" fill="#0A0A0A" stroke="#0F0F0F" stroke-width="0.353003"/>
<path d="M58.8165 30.9461C60.342 30.4505 62.7997 29.7898 64.3252 29.5007C65.8507 29.1703 69.283 28.8812 71.9526 28.8812C74.6222 28.8399 78.4359 29.0877 80.4275 29.4594C82.4191 29.7898 85.2582 30.4505 86.7837 30.9048C88.3092 31.4004 91.8263 32.8872 94.623 34.2087C97.8011 35.7368 101.445 37.9256 104.369 40.0731C106.912 41.9729 111.573 45.9375 114.666 48.8698C117.759 51.8433 120.302 54.3212 120.302 54.4451C120.26 54.569 118.226 56.6752 115.683 59.1944C113.183 61.7136 109.581 64.9349 107.717 66.3804C105.895 67.8258 102.928 69.9734 101.191 71.0884C99.4537 72.2448 96.1908 74.0619 93.9874 75.1357C91.7839 76.1682 88.7329 77.4484 87.2074 77.9027C85.682 78.3983 83.6904 78.9765 82.7581 79.183C81.8259 79.4308 79.1563 79.8025 76.8257 80.0502C73.8171 80.3393 71.3594 80.3393 68.3508 80.0089C66.0202 79.7612 62.5031 79.1004 60.5115 78.5222C58.5199 77.9853 55.5537 76.9528 53.9435 76.2921C52.3332 75.59 49.4518 74.1445 47.5873 73.0708C45.7228 72.0383 42.5871 69.9321 40.5955 68.4866C38.6039 67.0412 34.3241 63.283 25.1288 54.4864L29.3662 50.2739C31.6968 48.0025 35.2987 44.6986 37.4174 42.964C39.5361 41.2295 42.8413 38.8342 44.8329 37.5539C46.8245 36.315 50.1721 34.4978 52.2485 33.5479C54.3248 32.5981 57.291 31.4004 58.8165 30.9461Z" fill="white"/>
<path d="M61.6555 39.6196C63.1386 39.124 65.3421 38.5871 66.5709 38.3393H66.5286C67.7574 38.1328 71.0626 38.0089 73.8594 38.0915C78.3934 38.2154 79.4528 38.4219 83.6055 39.7435C86.1903 40.6108 89.7074 42.0149 91.4448 42.9235C93.1821 43.8734 96.0636 45.6079 97.8009 46.8469C99.5383 48.0858 102.377 50.316 107.25 54.6523L103.479 57.7497C101.403 59.4843 98.4789 61.7144 96.9535 62.7882C95.428 63.8206 92.4618 65.5139 90.3854 66.5463C88.3091 67.5375 85.4276 68.7765 84.0292 69.2307C82.6309 69.685 80.1308 70.3045 78.5205 70.5936C76.6561 70.8827 73.817 71.0066 70.8931 70.8414C68.1812 70.6762 64.9183 70.2219 63.0539 69.7263C61.3165 69.2307 57.9689 67.9505 55.6383 66.8354C53.3077 65.7204 49.4093 63.325 46.9515 61.5492C44.4938 59.7321 41.5276 57.4193 38.2648 54.4458L40.1716 52.7939C41.231 51.8853 44.0277 49.6965 46.3583 47.9206C48.7313 46.1861 52.545 43.7908 54.8332 42.5931C57.1638 41.4367 60.2148 40.0739 61.6555 39.6196Z" fill="#0A0A0A"/>
<path d="M66.2744 50.7285C66.7829 49.9438 67.8422 48.87 68.605 48.3744C69.6643 47.6724 70.6813 47.4246 72.5034 47.4246C73.817 47.4246 75.4273 47.6724 76.1053 48.0027C76.7409 48.3331 77.6731 49.0352 78.1392 49.5721C78.6477 50.0677 79.2834 50.9762 79.58 51.5544C79.8766 52.1326 80.1308 53.4955 80.1732 54.6518C80.1732 56.1799 79.919 57.1297 79.1562 58.2448C78.563 59.0708 77.4613 60.1858 76.6561 60.7227C75.5544 61.4248 74.6222 61.6726 72.8001 61.6726C70.8932 61.6726 70.0457 61.4248 68.6474 60.5162C67.6727 59.8968 66.5286 58.7817 66.1473 58.0383C65.7235 57.2949 65.4269 55.7669 65.4269 54.4453C65.3845 52.8347 65.6811 51.7609 66.2744 50.7285Z" fill="white"/>
</svg>
