<svg width="44" height="40" viewBox="0 0 44 40" fill="none" xmlns="http://www.w3.org/2000/svg">
<path d="M9.75 32.25C10.3023 32.25 10.75 31.8023 10.75 31.25C10.75 30.6977 10.3023 30.25 9.75 30.25V32.25ZM34.25 30.25C33.6977 30.25 33.25 30.6977 33.25 31.25C33.25 31.8023 33.6977 32.25 34.25 32.25V30.25ZM35.9888 13.9228L35.7912 14.903H35.7912L35.9888 13.9228ZM8.01117 13.9228L8.20882 14.903H8.20882L8.01117 13.9228ZM9.87331 12.0052L10.8633 12.1464L9.87331 12.0052ZM34.1267 12.0052L33.1367 12.1464V12.1464L34.1267 12.0052ZM21 38.25C21 38.8023 21.4477 39.25 22 39.25C22.5523 39.25 23 38.8023 23 38.25H21ZM22 24.25L22.7071 23.5429C22.3166 23.1524 21.6834 23.1524 21.2929 23.5429L22 24.25ZM26.5429 30.2071C26.9334 30.5976 27.5666 30.5976 27.9571 30.2071C28.3476 29.8166 28.3476 29.1834 27.9571 28.7929L26.5429 30.2071ZM16.0429 28.7929C15.6524 29.1834 15.6524 29.8166 16.0429 30.2071C16.4334 30.5976 17.0666 30.5976 17.4571 30.2071L16.0429 28.7929ZM9.75 30.25C5.46979 30.25 2 26.7802 2 22.5H0C0 27.8848 4.36522 32.25 9.75 32.25V30.25ZM42 22.5C42 26.7802 38.5302 30.25 34.25 30.25V32.25C39.6348 32.25 44 27.8848 44 22.5H42ZM35.7912 14.903C39.3331 15.6172 42 18.7483 42 22.5H44C44 17.7775 40.6435 13.8411 36.1865 12.9425L35.7912 14.903ZM7.81352 12.9425C3.35652 13.8411 0 17.7775 0 22.5H2C2 18.7483 4.66685 15.6172 8.20882 14.903L7.81352 12.9425ZM10.8633 12.1464C11.6409 6.69308 16.3317 2.5 22 2.5V0.5C15.3221 0.5 9.79951 5.43922 8.88333 11.864L10.8633 12.1464ZM22 2.5C27.6683 2.5 32.3591 6.69308 33.1367 12.1464L35.1167 11.864C34.2005 5.43922 28.6779 0.5 22 0.5V2.5ZM8.20882 14.903C9.53918 14.6348 10.6626 13.5541 10.8633 12.1464L8.88333 11.864C8.81118 12.3699 8.37803 12.8287 7.81352 12.9425L8.20882 14.903ZM36.1865 12.9425C35.622 12.8287 35.1888 12.3699 35.1167 11.864L33.1367 12.1464C33.3374 13.5541 34.4608 14.6348 35.7912 14.903L36.1865 12.9425ZM23 38.25V24.25H21V38.25H23ZM21.2929 24.9571L26.5429 30.2071L27.9571 28.7929L22.7071 23.5429L21.2929 24.9571ZM21.2929 23.5429L16.0429 28.7929L17.4571 30.2071L22.7071 24.9571L21.2929 23.5429Z" fill="#C264B2"/>
</svg>
