<svg width="158" height="96" viewBox="0 0 158 96" fill="none" xmlns="http://www.w3.org/2000/svg">
<path d="M61.2965 2.04085C63.3197 1.50266 66.8604 0.829923 69.1136 0.515978C71.7347 0.112335 75.8272 -0.0670618 80.3795 0.0226367C84.4721 0.112335 89.1624 0.515978 91.4155 0.964471C93.5768 1.36811 96.9795 2.1754 99.0028 2.71359C101.026 3.29663 104.659 4.50756 107.05 5.44939C109.441 6.34638 112.982 7.96095 114.867 8.94763C116.752 9.93432 119.879 11.7731 121.765 12.9841C123.65 14.2398 127.191 16.7514 129.582 18.5902C131.973 20.429 137.169 25.0934 141.078 28.9504C144.986 32.8074 150.366 38.5481 153.033 41.6876C155.7 44.8719 157.907 47.5628 157.999 47.7422C158.045 47.9216 155.47 51.0611 152.297 54.7836C149.079 58.4612 143.653 64.2467 140.204 67.5656C136.755 70.9293 132.203 75.0106 130.042 76.67C127.88 78.3743 124.478 80.7961 122.454 82.1416C120.431 83.4422 117.12 85.4156 115.097 86.492C113.074 87.5683 109.349 89.3175 106.82 90.3938C104.291 91.4254 100.474 92.8157 98.313 93.3987C96.1518 94.0266 92.6571 94.8339 90.4959 95.2376C87.6909 95.8206 84.3801 96 78.7701 96C72.5164 95.9552 69.9873 95.7758 66.1247 94.9685C63.4577 94.4303 59.5491 93.3987 57.3879 92.726C55.2267 92.0084 51.2261 90.4387 48.4211 89.2278C45.6621 88.0168 41.3857 85.8192 38.9946 84.384C36.6034 82.904 32.5569 80.2131 30.0278 78.3743C27.4987 76.5354 21.9807 71.6469 17.7962 67.5656C13.6118 63.4843 7.86384 57.4297 5.05886 54.1108C2.20789 50.792 -0.0452919 47.9216 0.000691461 47.7422C0.0898822 47.5682 2.29829 44.9477 4.94816 41.8032L5.19681 41.5082C7.95581 38.2342 12.83 32.942 16.0029 29.7577C19.1757 26.5285 23.7281 22.3127 26.1192 20.3842C28.5104 18.4108 32.7868 15.3162 35.5458 13.5223C38.3048 11.6834 42.9031 9.12703 45.6621 7.78155C48.4671 6.43608 52.2837 4.77666 54.1691 4.14877C56.0544 3.47603 59.2732 2.53419 61.2965 2.04085Z" fill="#555555"/>
<path d="M62.9073 11.9976C64.7927 11.4594 68.2414 10.7418 70.4946 10.383C73.2536 9.93454 76.6104 9.79999 80.6109 9.93454C84.0137 10.0242 88.3821 10.5176 90.7272 11.0109C92.9804 11.4594 96.5211 12.4012 98.5444 13.0291C100.568 13.7019 104.476 15.3164 107.281 16.6171C110.086 17.9626 114.087 20.205 116.248 21.6402C118.409 23.0305 122.042 25.6766 124.295 27.4706C126.548 29.2197 130.917 33.1664 133.952 36.2162C136.986 39.2659 140.573 43.0333 141.907 44.603C143.194 46.1279 144.252 47.6527 144.16 48.0115C144.114 48.3703 142.275 50.6576 140.113 53.0795C137.906 55.5014 133.952 59.5378 131.239 62.0942C128.572 64.6058 124.755 67.9246 122.778 69.4495C120.846 70.9744 117.582 73.2617 115.558 74.5174C113.535 75.8181 109.718 77.926 107.051 79.2266C104.384 80.5272 100.154 82.2315 97.6247 83.0836C95.0957 83.8909 91.1411 84.8776 88.8879 85.2812C85.6691 85.8643 83.048 85.9988 77.1622 85.8195C71.0004 85.6849 68.7472 85.4158 65.2065 84.5188C62.8154 83.8909 58.6769 82.5454 56.0098 81.5139C53.3428 80.5272 49.1123 78.509 46.5833 77.0738C44.0542 75.6835 39.9157 72.9926 37.3866 71.1986C34.8115 69.3149 29.4315 64.6058 25.155 60.4348C20.9706 56.3535 16.5562 51.8237 13.2454 47.8321L17.108 43.4818C19.2232 41.0599 23.4996 36.6647 26.6265 33.7046C29.7534 30.7446 34.6276 26.6633 37.3866 24.6451C40.1916 22.6269 44.422 19.8462 46.8132 18.5456C49.2043 17.2001 53.0669 15.4061 55.3201 14.5092C57.5733 13.6122 61.022 12.4909 62.9073 11.9976Z" fill="#222222"/>
<path d="M63.8268 22.3125C65.4822 21.7743 68.1492 21.0567 69.8046 20.7428C71.46 20.384 75.1846 20.0701 78.0816 20.0701C80.9785 20.0252 85.117 20.2943 87.2783 20.6979C89.4395 21.0567 92.5204 21.7743 94.1758 22.2677C95.8312 22.8059 99.6478 24.4204 102.683 25.8556C106.131 27.515 110.086 29.892 113.259 32.2242C116.018 34.2873 121.076 38.5928 124.433 41.7771C127.79 45.0062 130.549 47.6972 130.549 47.8317C130.503 47.9663 128.295 50.2536 125.536 52.9894C122.823 55.7252 118.915 59.2234 116.892 60.7932C114.914 62.3629 111.695 64.695 109.81 65.906C107.925 67.1617 104.384 69.1351 101.993 70.3012C99.6018 71.4224 96.291 72.8127 94.6356 73.3061C92.9802 73.8443 90.819 74.4722 89.8073 74.6964C88.7957 74.9655 85.8988 75.3692 83.3697 75.6383C80.1049 75.9522 77.4378 75.9522 74.173 75.5934C71.6439 75.3243 67.8273 74.6067 65.6661 73.9788C63.5049 73.3958 60.286 72.2746 58.5387 71.557C56.7913 70.7945 53.6644 69.2248 51.6412 68.0587C49.6179 66.9375 46.2152 64.6502 44.0539 63.0805C41.8927 61.5107 37.2484 57.4295 27.27 47.8766L31.8684 43.302C34.3974 40.8353 38.306 37.2473 40.6052 35.3636C42.9044 33.48 46.4911 30.8787 48.6523 29.4884C50.8135 28.1429 54.4462 26.1696 56.6993 25.138C58.9525 24.1065 62.1714 22.8059 63.8268 22.3125Z" fill="#555555"/>
<path d="M66.9057 31.7307C68.5152 31.1925 70.9063 30.6095 72.2398 30.3404H72.1938C73.5273 30.1162 77.114 29.9816 80.1489 30.0713C85.0692 30.2059 86.2187 30.4301 90.7251 31.8653C93.5301 32.8071 97.3467 34.332 99.232 35.3187C101.117 36.3502 104.244 38.2339 106.13 39.5793C108.015 40.9248 111.096 43.3467 116.384 48.0559L112.291 51.4195C110.038 53.3032 106.865 55.7251 105.21 56.8912C103.554 58.0124 100.336 59.8512 98.0824 60.9724C95.8293 62.0488 92.7024 63.3943 91.1849 63.8876C89.6675 64.381 86.9545 65.0537 85.2071 65.3677C83.1838 65.6816 80.103 65.8162 76.9301 65.6368C73.9872 65.4574 70.4465 64.964 68.4232 64.4258C66.5379 63.8876 62.9052 62.4973 60.3761 61.2864C57.847 60.0754 53.6166 57.4742 50.9495 55.5457C48.2825 53.5723 45.0637 51.0608 41.5229 47.8316L43.5922 46.0376C44.7418 45.051 47.7767 42.6739 50.3058 40.7454C52.8808 38.8618 57.0193 36.2605 59.5024 34.9599C62.0315 33.7041 65.3423 32.2241 66.9057 31.7307Z" fill="#222222"/>
<path d="M71.9211 43.7955C72.4729 42.9433 73.6224 41.7772 74.4501 41.2391C75.5997 40.4766 76.7033 40.2075 78.6806 40.2075C80.1061 40.2075 81.8535 40.4766 82.5892 40.8354C83.2789 41.1942 84.2906 41.9566 84.7964 42.5397C85.3482 43.0779 86.0379 44.0646 86.3598 44.6924C86.6817 45.3203 86.9576 46.8004 87.0036 48.0561C87.0036 49.7156 86.7277 50.7471 85.9 51.958C85.2562 52.855 84.0607 54.0659 83.187 54.649C81.9914 55.4114 80.9798 55.6805 79.0025 55.6805C76.9332 55.6805 76.0136 55.4114 74.4961 54.4247C73.4385 53.752 72.197 52.5411 71.7831 51.7338C71.3233 50.9265 71.0014 49.2671 71.0014 47.8319C70.9554 46.0828 71.2773 44.9167 71.9211 43.7955Z" fill="#555555"/>
</svg>
