<svg width="158" height="96" viewBox="0 0 158 96" fill="none" xmlns="http://www.w3.org/2000/svg">
<path d="M61.2965 2.04085C63.3197 1.50266 66.8604 0.829923 69.1136 0.515978C71.7347 0.112335 75.8272 -0.0670618 80.3795 0.0226367C84.4721 0.112335 89.1624 0.515978 91.4155 0.964471C93.5768 1.36811 96.9795 2.1754 99.0028 2.71359C101.026 3.29663 104.659 4.50756 107.05 5.44939C109.441 6.34638 112.982 7.96095 114.867 8.94763C116.752 9.93432 119.879 11.7731 121.765 12.9841C123.65 14.2398 127.191 16.7514 129.582 18.5902C131.973 20.429 137.169 25.0934 141.078 28.9504C144.986 32.8074 150.366 38.5481 153.033 41.6876C155.7 44.8719 157.907 47.5628 157.999 47.7422C158.045 47.9216 155.47 51.0611 152.297 54.7836C149.079 58.4612 143.653 64.2467 140.204 67.5656C136.755 70.9293 132.203 75.0106 130.042 76.67C127.88 78.3743 124.478 80.7961 122.454 82.1416C120.431 83.4422 117.12 85.4156 115.097 86.492C113.074 87.5683 109.349 89.3175 106.82 90.3938C104.291 91.4254 100.474 92.8157 98.313 93.3987C96.1518 94.0266 92.6571 94.8339 90.4959 95.2376C87.6909 95.8206 84.3801 96 78.7701 96C72.5164 95.9552 69.9873 95.7758 66.1247 94.9685C63.4577 94.4303 59.5491 93.3987 57.3879 92.726C55.2267 92.0084 51.2261 90.4387 48.4211 89.2278C45.6621 88.0168 41.3857 85.8192 38.9946 84.384C36.6034 82.904 32.5569 80.2131 30.0278 78.3743C27.4987 76.5354 21.9807 71.6469 17.7962 67.5656C13.6118 63.4843 7.86384 57.4297 5.05886 54.1108C2.20789 50.792 -0.0452919 47.9216 0.000691461 47.7422C0.0898822 47.5682 2.29829 44.9477 4.94816 41.8032L5.19681 41.5082C7.95581 38.2342 12.83 32.942 16.0029 29.7577C19.1757 26.5285 23.7281 22.3127 26.1192 20.3842C28.5104 18.4108 32.7868 15.3162 35.5458 13.5223C38.3048 11.6834 42.9031 9.12703 45.6621 7.78155C48.4671 6.43608 52.2837 4.77666 54.1691 4.14877C56.0544 3.47603 59.2732 2.53419 61.2965 2.04085Z" fill="white"/>
<path d="M62.9057 11.9981C64.791 11.4599 68.2398 10.7423 70.493 10.3835C73.252 9.93503 76.6087 9.80048 80.6093 9.93503C84.0121 10.0247 88.3805 10.5181 90.7256 11.0114C92.9788 11.4599 96.5195 12.4017 98.5428 13.0296C100.566 13.7024 104.475 15.3169 107.28 16.6176C110.085 17.963 114.085 20.2055 116.246 21.6407C118.408 23.031 122.04 25.6771 124.293 27.4711C126.547 29.2202 130.915 33.1669 133.95 36.2167C136.985 39.2664 140.572 43.0338 141.905 44.6035C143.193 46.1284 144.25 47.6532 144.158 48.012C144.112 48.3708 142.273 50.6581 140.112 53.08C137.905 55.5019 133.95 59.5383 131.237 62.0947C128.57 64.6062 124.753 67.9251 122.776 69.45C120.845 70.9748 117.58 73.2621 115.557 74.5179C113.533 75.8186 109.717 77.9265 107.05 79.2271C104.383 80.5277 100.152 82.232 97.6231 83.0841C95.094 83.8914 91.1395 84.8781 88.8863 85.2817C85.6674 85.8648 83.0464 85.9993 77.1605 85.8199C70.9988 85.6854 68.7456 85.4163 65.2049 84.5193C62.8137 83.8914 58.6752 82.5459 56.0082 81.5144C53.3412 80.5277 49.1107 78.5095 46.5816 77.0743C44.0525 75.684 39.914 72.9931 37.385 71.1991C34.8099 69.3154 29.4298 64.6062 25.1534 60.4353C20.9689 56.354 16.5545 51.8242 13.2437 47.8326L17.1063 43.4823C19.2215 41.0604 23.498 36.6652 26.6249 33.7051C29.7517 30.7451 34.626 26.6638 37.385 24.6456C40.1899 22.6274 44.4204 19.8467 46.8115 18.5461C49.2027 17.2006 53.0653 15.4066 55.3185 14.5097C57.5716 13.6127 61.0204 12.4914 62.9057 11.9981Z" fill="#0A0A0A" stroke="#0F0F0F" stroke-width="0.353003"/>
<path d="M63.8256 22.3133C65.481 21.7751 68.148 21.0575 69.8034 20.7435C71.4588 20.3847 75.1835 20.0708 78.0804 20.0708C80.9774 20.0259 85.1159 20.295 87.2771 20.6987C89.4383 21.0575 92.5192 21.7751 94.1746 22.2684C95.83 22.8066 99.6466 24.4212 102.682 25.8563C106.13 27.5158 110.085 29.8928 113.258 32.2249C116.017 34.288 121.075 38.5935 124.432 41.7778C127.788 45.007 130.547 47.6979 130.547 47.8325C130.501 47.967 128.294 50.2543 125.535 52.9901C122.822 55.7259 118.914 59.2242 116.89 60.7939C114.913 62.3636 111.694 64.6958 109.809 65.9067C107.924 67.1625 104.383 69.1358 101.992 70.3019C99.6006 71.4232 96.2898 72.8135 94.6344 73.3068C92.979 73.845 90.8178 74.4729 89.8062 74.6972C88.7945 74.9663 85.8976 75.3699 83.3685 75.639C80.1037 75.9529 77.4367 75.9529 74.1718 75.5941C71.6428 75.325 67.8262 74.6075 65.6649 73.9796C63.5037 73.3965 60.2849 72.2753 58.5375 71.5577C56.7902 70.7953 53.6633 69.2255 51.64 68.0595C49.6168 66.9382 46.214 64.6509 44.0528 63.0812C41.8916 61.5115 37.2472 57.4302 27.2689 47.8773L31.8672 43.3027C34.3963 40.836 38.3049 37.248 40.604 35.3644C42.9032 33.4807 46.4899 30.8795 48.6511 29.4891C50.8123 28.1437 54.445 26.1703 56.6982 25.1388C58.9514 24.1072 62.1702 22.8066 63.8256 22.3133Z" fill="white"/>
<path d="M66.9064 31.7315C68.5158 31.1933 70.9069 30.6102 72.2404 30.3411H72.1944C73.528 30.1169 77.1147 29.9823 80.1495 30.072C85.0698 30.2066 86.2193 30.4308 90.7257 31.866C93.5307 32.8078 97.3473 34.3327 99.2326 35.3194C101.118 36.3509 104.245 38.2346 106.13 39.5801C108.015 40.9256 111.096 43.3474 116.384 48.0566L112.292 51.4203C110.039 53.3039 106.866 55.7258 105.21 56.8919C103.555 58.0131 100.336 59.8519 98.083 60.9732C95.8299 62.0495 92.703 63.395 91.1855 63.8884C89.6681 64.3817 86.9551 65.0545 85.2077 65.3684C83.1844 65.6823 80.1036 65.8169 76.9307 65.6375C73.9878 65.4581 70.4471 64.9647 68.4238 64.4266C66.5385 63.8884 62.9058 62.498 60.3767 61.2871C57.8476 60.0762 53.6172 57.4749 50.9501 55.5464C48.2831 53.573 45.0643 51.0615 41.5236 47.8323L43.5928 46.0384C44.7424 45.0517 47.7773 42.6747 50.3064 40.7462C52.8814 38.8625 57.0199 36.2612 59.503 34.9606C62.0321 33.7048 65.3429 32.2248 66.9064 31.7315Z" fill="#0A0A0A"/>
<path d="M71.9186 43.7959C72.4704 42.9438 73.62 41.7777 74.4477 41.2395C75.5973 40.4771 76.7009 40.208 78.6782 40.208C80.1037 40.208 81.851 40.4771 82.5868 40.8359C83.2765 41.1947 84.2881 41.9571 84.7939 42.5402C85.3457 43.0784 86.0355 44.065 86.3574 44.6929C86.6793 45.3208 86.9552 46.8008 87.0011 48.0566C87.0011 49.716 86.7252 50.7476 85.8975 51.9585C85.2538 52.8555 84.0582 54.0664 83.1845 54.6495C81.989 55.4119 80.9773 55.681 79 55.681C76.9308 55.681 76.0111 55.4119 74.4937 54.4252C73.4361 53.7525 72.1945 52.5415 71.7807 51.7343C71.3208 50.927 70.999 49.2676 70.999 47.8324C70.953 46.0833 71.2749 44.9172 71.9186 43.7959Z" fill="white"/>
</svg>
