<svg width="19" height="22" viewBox="0 0 19 22" fill="none" xmlns="http://www.w3.org/2000/svg">
<path d="M15.3544 16.3895L14.6577 16.3222L15.3544 16.3895ZM3.64557 16.3895L2.94882 16.4568L3.64557 16.3895ZM5.56786 20.6934L5.26031 21.3222H5.26031L5.56786 20.6934ZM4.23865 19.448L3.63321 19.7993H3.63321L4.23865 19.448ZM14.7614 19.448L15.3668 19.7993L15.3668 19.7993L14.7614 19.448ZM13.4321 20.6934L13.7397 21.3222H13.7397L13.4321 20.6934ZM1 4.7C0.613401 4.7 0.3 5.0134 0.3 5.4C0.3 5.7866 0.613401 6.1 1 6.1V4.7ZM18 6.1C18.3866 6.1 18.7 5.7866 18.7 5.4C18.7 5.0134 18.3866 4.7 18 4.7V6.1ZM10.8727 1.08178L11.0598 0.407251L10.8727 1.08178ZM12.5119 2.77883L13.1896 2.60344V2.60344L12.5119 2.77883ZM8.12728 1.08178L8.3144 1.75631L8.12728 1.08178ZM6.48808 2.77883L7.16575 2.95423V2.95423L6.48808 2.77883ZM12.9013 9.0673C12.9385 8.68249 12.6567 8.34041 12.2718 8.30324C11.887 8.26607 11.545 8.54789 11.5078 8.9327L12.9013 9.0673ZM10.7351 16.9327C10.6979 17.3175 10.9797 17.6596 11.3645 17.6968C11.7493 17.7339 12.0914 17.4521 12.1286 17.0673L10.7351 16.9327ZM7.49221 8.9327C7.45504 8.54789 7.11296 8.26607 6.72815 8.30324C6.34335 8.34041 6.06153 8.68249 6.0987 9.0673L7.49221 8.9327ZM6.87142 17.0673C6.90859 17.4521 7.25067 17.7339 7.63548 17.6968C8.02029 17.6596 8.30211 17.3175 8.26494 16.9327L6.87142 17.0673ZM10.4335 20.3H8.56648V21.7H10.4335V20.3ZM8.56648 20.3C7.76459 20.3 7.2047 20.2995 6.7658 20.264C6.33621 20.2292 6.07892 20.1641 5.87541 20.0646L5.26031 21.3222C5.68373 21.5293 6.13518 21.6175 6.65288 21.6594C7.16129 21.7005 7.78724 21.7 8.56648 21.7V20.3ZM2.94882 16.4568C3.02646 17.2606 3.08796 17.9022 3.1775 18.4184C3.26839 18.9425 3.39614 19.3908 3.63321 19.7993L4.84408 19.0967C4.72407 18.8898 4.63394 18.6233 4.55691 18.1792C4.47851 17.7271 4.42201 17.1471 4.34233 16.3222L2.94882 16.4568ZM5.87541 20.0646C5.45037 19.8567 5.09041 19.5211 4.84408 19.0967L3.63321 19.7993C4.01589 20.4588 4.581 20.99 5.26031 21.3222L5.87541 20.0646ZM14.6577 16.3222C14.578 17.1471 14.5215 17.7271 14.4431 18.1792C14.3661 18.6233 14.2759 18.8898 14.1559 19.0967L15.3668 19.7993C15.6039 19.3908 15.7316 18.9425 15.8225 18.4184C15.912 17.9022 15.9735 17.2606 16.0512 16.4568L14.6577 16.3222ZM10.4335 21.7C11.2128 21.7 11.8387 21.7005 12.3471 21.6594C12.8648 21.6175 13.3163 21.5293 13.7397 21.3222L13.1246 20.0646C12.9211 20.1641 12.6638 20.2292 12.2342 20.264C11.7953 20.2995 11.2354 20.3 10.4335 20.3V21.7ZM14.1559 19.0967C13.9096 19.5211 13.5496 19.8567 13.1246 20.0646L13.7397 21.3222C14.419 20.99 14.9841 20.4588 15.3668 19.7993L14.1559 19.0967ZM11.8909 4.2V5H13.2909V4.2H11.8909ZM7.10909 5V4.2H5.70909V5H7.10909ZM9.5 1.7C10.2651 1.7 10.5057 1.70641 10.6856 1.75631L11.0598 0.407251C10.6501 0.293586 10.1721 0.3 9.5 0.3V1.7ZM13.2909 4.2C13.2909 3.49968 13.2965 3.01669 13.1896 2.60344L11.8342 2.95423C11.8853 3.15138 11.8909 3.41236 11.8909 4.2H13.2909ZM10.6856 1.75631C11.2357 1.90891 11.6802 2.35894 11.8342 2.95423L13.1896 2.60344C12.9149 1.54229 12.1097 0.698483 11.0598 0.407251L10.6856 1.75631ZM9.5 0.3C8.82789 0.3 8.34991 0.293586 7.94017 0.407251L8.3144 1.75631C8.49425 1.70641 8.73488 1.7 9.5 1.7V0.3ZM7.10909 4.2C7.10909 3.41236 7.11473 3.15138 7.16575 2.95423L5.81041 2.60344C5.70346 3.01669 5.70909 3.49968 5.70909 4.2H7.10909ZM7.94017 0.407251C6.89032 0.698483 6.08505 1.54229 5.81041 2.60344L7.16575 2.95423C7.31982 2.35894 7.76427 1.90891 8.3144 1.75631L7.94017 0.407251ZM11.5078 8.9327L10.7351 16.9327L12.1286 17.0673L12.9013 9.0673L11.5078 8.9327ZM6.0987 9.0673L6.87142 17.0673L8.26494 16.9327L7.49221 8.9327L6.0987 9.0673ZM16.4159 6.1H18V4.7H16.4159V6.1ZM15.7192 5.3327L14.6577 16.3222L16.0512 16.4568L17.1127 5.4673L15.7192 5.3327ZM12.5909 6.1H16.4159V4.7H12.5909V6.1ZM11.8909 5V5.4H13.2909V5H11.8909ZM6.40909 6.1H12.5909V4.7H6.40909V6.1ZM5.70909 5V5.4H7.10909V5H5.70909ZM1 6.1H2.58409V4.7H1V6.1ZM2.58409 6.1H6.40909V4.7H2.58409V6.1ZM4.34233 16.3222L3.28085 5.3327L1.88733 5.4673L2.94882 16.4568L4.34233 16.3222Z" fill="white"/>
</svg>
